<svg xmlns="http://www.w3.org/2000/svg" version="1.1" viewBox="220.91 35.99 446.57 452.33">
<g id="#fffde9ff">
<path fill="#fffde9" opacity="1.00" d=" M 411.48 201.00 C 433.67 200.01 455.93 199.92 478.09 201.56 C 484.84 202.02 491.51 203.44 498.29 203.53 C 488.29 217.26 490.43 237.72 502.40 249.58 C 514.78 262.15 536.49 263.18 550.28 252.31 C 558.04 246.76 562.98 237.69 563.94 228.25 C 586.20 232.11 608.18 238.15 628.70 247.69 C 629.19 260.11 630.09 272.56 629.17 284.99 C 627.87 307.79 623.25 330.49 614.61 351.67 C 611.40 359.93 607.19 367.78 601.81 374.83 C 589.87 392.50 572.23 405.98 552.35 413.56 C 552.14 409.49 552.95 405.23 551.57 401.32 C 549.92 397.11 545.59 394.14 541.06 394.27 C 534.37 394.23 527.68 394.32 521.00 394.31 C 520.97 392.93 520.95 391.56 520.93 390.20 C 530.61 389.56 540.63 390.49 549.90 386.97 C 557.58 384.65 563.92 379.52 569.09 373.55 C 574.05 368.37 576.11 361.10 576.84 354.13 C 567.10 361.08 554.51 361.52 542.99 361.37 C 532.77 361.28 521.47 358.83 514.60 350.65 C 515.29 343.79 520.64 338.49 526.43 335.37 C 532.81 332.10 539.77 329.53 547.02 329.50 C 548.96 329.42 551.49 329.58 552.48 327.48 C 554.18 324.86 551.72 321.64 548.98 321.23 C 539.31 319.90 529.37 322.21 521.11 327.35 C 520.87 323.06 522.26 318.15 519.48 314.43 C 517.85 311.95 515.07 310.20 512.07 310.19 C 465.04 310.05 418.02 310.19 370.99 310.13 C 366.65 309.88 362.48 312.94 361.20 317.06 C 360.54 320.15 360.81 323.35 360.97 326.48 C 353.31 321.63 343.99 320.32 335.09 321.13 C 332.33 321.44 330.07 324.74 331.67 327.29 C 332.80 329.72 335.77 329.35 337.98 329.50 C 344.82 329.93 351.49 332.27 357.43 335.63 C 363.09 339.04 368.29 344.55 368.46 351.53 C 357.36 361.70 341.16 362.05 327.00 360.89 C 319.83 360.59 313.12 357.96 306.75 354.87 C 307.24 362.43 310.37 369.71 315.47 375.30 C 321.52 381.94 329.71 386.50 338.49 388.35 C 345.89 389.89 353.47 390.42 361.03 390.47 C 361.02 391.43 361.00 393.34 360.99 394.30 C 354.97 394.37 348.95 394.19 342.93 394.37 C 338.42 394.43 334.26 397.73 332.88 401.97 C 332.09 405.71 332.60 409.57 332.52 413.36 C 319.56 407.87 306.62 401.50 296.53 391.44 C 285.44 380.73 276.94 367.52 270.70 353.48 C 260.63 329.33 255.76 303.15 255.50 277.03 C 255.11 268.91 255.68 260.78 255.22 252.67 L 255.22 252.62 C 255.45 251.00 255.71 249.39 255.95 247.78 C 275.21 238.46 295.98 232.76 316.83 228.30 C 317.39 235.46 320.48 242.34 325.33 247.62 C 331.54 254.67 340.71 258.62 349.92 259.77 C 365.21 261.42 380.76 251.85 386.37 237.57 C 390.64 226.96 389.35 214.48 383.53 204.71 L 382.93 203.68 C 392.47 203.09 401.91 201.33 411.48 201.00 M 431.99 227.00 C 431.28 230.42 434.59 232.74 437.49 233.52 C 436.66 235.81 435.79 238.19 434.07 239.99 C 430.76 243.56 424.57 244.48 420.76 241.18 C 417.88 238.01 420.54 233.10 418.30 229.66 C 415.79 226.42 409.83 228.39 409.74 232.46 C 409.85 236.24 409.09 240.37 410.91 243.86 C 412.87 248.08 417.24 250.09 421.31 251.75 C 421.21 258.26 421.70 265.14 425.14 270.86 C 428.31 276.50 434.35 280.78 440.97 280.76 C 446.90 280.83 452.42 277.46 455.80 272.72 C 460.38 266.64 461.18 258.73 461.13 251.37 C 466.83 250.17 471.88 244.97 471.83 238.97 C 471.89 236.59 471.97 234.20 471.80 231.83 C 471.21 228.70 467.27 226.83 464.51 228.56 C 460.00 231.81 465.07 239.07 459.94 241.99 C 453.43 245.87 445.09 240.24 444.14 233.24 C 446.66 232.58 449.51 231.02 449.59 228.05 C 449.35 223.83 444.71 221.86 441.01 221.98 C 437.54 222.02 433.17 223.36 431.99 227.00 M 299.49 252.68 C 292.14 254.46 285.83 259.71 282.41 266.41 C 279.56 272.12 279.47 279.46 283.25 284.78 C 287.23 290.65 294.00 294.00 300.82 295.29 C 309.50 296.80 318.78 295.75 326.60 291.57 C 332.58 287.98 337.07 281.22 336.56 274.06 C 336.36 266.98 331.83 260.74 326.24 256.73 C 318.44 251.59 308.46 250.53 299.49 252.68 M 568.30 252.38 C 561.55 253.75 555.31 257.65 551.44 263.39 C 547.32 269.17 546.46 277.49 550.37 283.60 C 554.47 289.97 561.68 293.76 569.01 295.03 C 578.63 296.82 589.42 295.69 597.18 289.25 C 603.34 284.47 605.57 275.51 602.56 268.35 C 600.13 262.63 595.73 257.63 590.11 254.90 C 583.47 251.37 575.56 251.14 568.30 252.38 Z"/>
<path fill="#fffde9" opacity="1.00" d=" M 369.28 322.94 C 368.88 320.81 371.09 319.41 373.00 319.69 C 418.35 319.75 463.71 319.65 509.06 319.62 C 510.45 319.50 512.18 319.76 512.59 321.36 C 513.05 325.11 512.70 328.91 512.85 332.68 C 506.42 338.88 503.00 348.18 504.97 357.04 C 505.83 362.59 509.33 367.09 512.49 371.53 C 512.96 393.35 512.53 415.20 512.72 437.03 C 464.92 436.86 417.11 437.26 369.30 436.94 C 369.24 415.43 369.31 393.92 369.45 372.41 C 374.83 367.07 378.55 359.77 378.21 352.05 C 378.45 344.58 374.73 337.62 369.60 332.42 C 368.87 329.41 369.42 326.07 369.28 322.94 M 388.56 340.35 C 389.62 341.03 390.79 341.33 392.06 341.26 C 425.71 341.23 459.36 341.34 492.99 341.12 C 495.01 338.31 494.39 333.91 493.28 330.74 C 458.85 330.83 424.41 330.53 389.98 330.81 C 387.07 332.90 389.07 337.27 388.56 340.35 M 388.33 348.05 C 387.55 349.75 389.18 351.56 390.94 351.29 C 424.99 351.52 459.06 351.07 493.11 351.28 C 494.34 349.92 495.13 347.76 493.18 346.60 C 491.17 346.16 489.08 346.37 487.04 346.34 C 455.34 346.40 423.63 346.31 391.93 346.38 C 390.56 346.34 388.76 346.46 388.33 348.05 M 388.92 357.94 C 387.42 359.57 388.55 362.50 390.95 362.12 C 423.96 362.08 456.97 362.06 489.98 362.14 C 491.51 362.25 492.98 361.80 494.41 361.27 C 494.67 359.59 494.07 357.10 491.90 357.48 C 458.92 357.39 425.94 357.46 392.97 357.43 C 391.61 357.48 390.16 357.29 388.92 357.94 M 388.74 367.72 C 388.46 370.92 388.27 374.14 388.73 377.33 C 423.57 377.60 458.43 377.24 493.27 377.50 C 494.87 374.53 493.86 371.04 493.82 367.85 C 478.92 367.04 463.95 367.70 449.02 367.51 C 428.93 367.69 408.81 367.03 388.74 367.72 M 390.38 382.56 C 387.26 382.64 387.86 387.75 390.92 387.25 C 424.65 387.32 458.38 387.44 492.10 387.24 C 495.23 387.26 495.03 382.18 491.84 382.51 C 458.02 382.38 424.19 382.26 390.38 382.56 M 388.32 405.39 C 390.71 406.61 393.44 406.16 396.02 406.23 C 428.06 406.06 460.11 406.33 492.15 406.10 C 495.35 406.01 495.19 400.78 492.08 400.86 C 458.33 400.73 424.58 400.81 390.83 400.91 C 388.36 400.95 388.15 403.50 388.32 405.39 M 388.62 416.32 C 393.72 416.82 398.85 416.48 403.97 416.60 C 432.99 416.56 462.01 416.59 491.03 416.66 C 492.21 416.55 494.35 416.78 494.47 415.05 C 495.34 412.85 492.81 411.64 491.03 411.89 C 457.65 411.71 424.27 411.73 390.89 411.79 C 388.44 411.71 387.84 414.47 388.62 416.32 M 388.66 423.69 C 388.43 426.83 388.42 429.99 388.63 433.14 C 423.69 433.27 458.76 433.47 493.82 433.14 C 494.33 430.05 493.89 426.94 493.75 423.86 C 488.56 423.00 483.27 423.52 478.03 423.34 C 448.24 423.53 418.43 423.01 388.66 423.69 Z"/>
</g>
<g id="#1c0432ff">
<path fill="#1c0432" opacity="1.00" d=" M 273.93 39.70 C 291.51 33.90 311.35 34.90 328.06 42.99 C 345.45 51.25 359.36 67.30 363.37 86.33 C 369.49 83.01 376.20 81.06 382.78 78.87 C 397.73 74.08 413.21 70.88 428.87 69.69 C 454.04 68.03 479.51 71.11 503.59 78.62 C 510.69 80.76 517.71 83.25 524.38 86.50 C 527.34 72.69 536.03 60.69 546.70 51.70 C 559.93 41.06 577.06 35.46 594.02 36.03 C 613.46 36.56 632.66 44.87 646.02 59.06 C 667.72 80.97 674.35 117.23 659.47 144.63 C 655.52 151.92 649.98 158.21 643.89 163.77 C 636.47 170.27 627.21 174.20 617.87 177.05 C 628.02 195.81 634.74 216.26 639.13 237.09 C 644.09 259.37 646.35 282.24 646.05 305.06 C 646.11 328.91 643.27 352.75 637.94 375.99 C 633.95 392.43 628.13 408.97 617.21 422.17 C 612.62 428.00 607.14 433.09 601.06 437.34 C 601.53 444.68 600.77 452.27 597.30 458.88 C 594.15 465.20 589.13 470.75 582.55 473.56 C 574.43 477.92 564.02 476.63 556.64 471.36 C 552.93 468.73 550.41 464.90 547.76 461.30 C 547.49 465.71 547.95 470.51 545.43 474.40 C 542.36 479.78 536.05 482.62 529.97 482.22 C 469.59 482.36 409.20 482.50 348.81 482.14 C 344.93 480.79 340.80 479.15 338.47 475.54 C 335.57 471.76 336.13 466.79 336.02 462.33 C 330.09 472.52 317.60 478.68 305.96 475.57 C 297.57 473.55 291.08 467.12 287.22 459.63 C 283.54 452.79 282.47 444.87 283.01 437.20 C 273.83 429.93 265.64 421.26 259.89 411.01 C 248.26 389.91 244.06 365.75 241.26 342.10 C 238.27 310.76 238.75 278.93 244.35 247.89 C 248.82 226.62 253.72 205.14 263.49 185.57 C 264.90 182.52 266.88 179.76 268.04 176.60 C 258.99 173.69 250.30 169.26 243.34 162.70 C 233.51 153.25 225.61 141.37 222.55 127.95 C 218.28 108.16 222.48 86.70 233.83 69.94 C 243.68 56.11 257.41 44.50 273.93 39.70 M 266.45 54.46 C 250.47 63.51 238.09 79.03 233.88 97.02 C 231.03 106.91 231.49 117.57 233.72 127.56 C 237.08 140.02 245.09 151.02 255.43 158.65 C 260.95 162.71 267.44 165.06 273.87 167.25 C 276.27 163.80 278.54 160.26 280.86 156.75 C 284.96 150.63 289.42 144.77 294.25 139.20 C 302.68 128.85 312.34 119.56 322.64 111.10 C 332.38 103.73 342.41 96.68 353.33 91.14 L 353.14 90.75 C 349.33 69.75 331.47 53.03 310.96 48.41 C 296.03 44.64 280.02 47.52 266.45 54.46 M 556.29 58.25 C 545.70 66.32 536.33 77.87 535.12 91.58 C 535.46 91.79 536.13 92.20 536.47 92.41 C 546.66 97.98 556.23 104.59 565.43 111.66 C 575.32 119.54 584.46 128.45 592.31 138.37 C 597.33 144.63 602.56 150.78 606.51 157.81 C 608.80 160.77 610.24 164.51 612.79 167.17 C 634.17 163.23 651.47 144.96 655.57 123.82 C 657.17 114.35 657.10 104.34 654.22 95.13 C 651.31 85.10 646.07 75.78 639.21 67.93 C 626.25 53.41 606.42 45.29 586.99 46.87 C 576.06 48.02 565.15 51.63 556.29 58.25 M 376.15 92.46 C 338.15 107.02 306.58 135.62 285.20 169.92 C 280.17 177.26 276.20 185.27 272.26 193.22 C 265.19 208.44 260.68 224.71 257.16 241.07 C 256.46 244.91 255.38 248.70 255.22 252.62 L 255.22 252.67 C 251.24 272.12 250.43 292.14 250.58 311.97 C 250.63 328.09 252.18 344.19 255.03 360.05 C 258.19 380.22 263.92 400.89 277.03 416.99 C 281.71 422.95 287.65 427.66 293.37 432.56 C 291.18 443.00 293.64 455.15 302.01 462.32 C 308.19 467.82 318.68 467.47 324.33 461.34 C 326.91 458.96 328.24 455.64 329.05 452.31 C 326.91 451.04 324.64 449.81 323.09 447.81 C 322.19 446.18 324.15 444.72 325.60 445.47 C 327.85 446.52 330.21 447.28 332.68 447.69 C 332.49 436.24 332.58 424.80 332.52 413.36 C 332.60 409.57 332.09 405.71 332.88 401.97 C 334.26 397.73 338.42 394.43 342.93 394.37 C 348.95 394.19 354.97 394.37 360.99 394.30 C 361.00 393.34 361.02 391.43 361.03 390.47 C 361.05 386.26 361.00 382.06 361.05 377.87 C 347.02 382.77 330.54 382.55 317.69 374.55 C 314.32 371.17 318.49 364.56 322.85 367.09 C 332.65 371.69 344.18 372.44 354.53 369.35 C 362.17 366.98 368.78 359.88 368.46 351.53 C 368.29 344.55 363.09 339.04 357.43 335.63 C 351.49 332.27 344.82 329.93 337.98 329.50 C 335.77 329.35 332.80 329.72 331.67 327.29 C 330.07 324.74 332.33 321.44 335.09 321.13 C 343.99 320.32 353.31 321.63 360.97 326.48 C 360.81 323.35 360.54 320.15 361.20 317.06 C 362.48 312.94 366.65 309.88 370.99 310.13 C 418.02 310.19 465.04 310.05 512.07 310.19 C 515.07 310.20 517.85 311.95 519.48 314.43 C 522.26 318.15 520.87 323.06 521.11 327.35 C 529.37 322.21 539.31 319.90 548.98 321.23 C 551.72 321.64 554.18 324.86 552.48 327.48 C 551.49 329.58 548.96 329.42 547.02 329.50 C 539.77 329.53 532.81 332.10 526.43 335.37 C 520.64 338.49 515.29 343.79 514.60 350.65 C 513.74 360.28 522.04 368.09 530.80 370.26 C 539.08 372.18 547.93 371.87 556.06 369.35 C 558.76 368.71 561.10 366.24 564.04 367.04 C 565.97 368.10 567.22 370.12 567.19 372.35 C 564.81 376.23 560.21 377.47 556.23 379.06 C 544.77 382.98 531.96 382.01 520.80 377.52 C 520.81 381.75 520.75 385.97 520.93 390.20 C 520.95 391.56 520.97 392.93 521.00 394.31 C 527.68 394.32 534.37 394.23 541.06 394.27 C 545.59 394.14 549.92 397.11 551.57 401.32 C 552.95 405.23 552.14 409.49 552.35 413.56 C 552.29 424.90 552.37 436.25 552.33 447.60 C 555.48 447.71 559.38 443.32 561.80 446.83 C 560.21 449.06 557.89 450.56 555.32 451.45 C 556.78 457.76 561.00 463.88 567.52 465.63 C 574.06 467.61 581.24 464.62 585.23 459.27 C 591.00 451.92 592.72 442.01 591.07 432.94 C 593.56 430.45 596.55 428.55 599.16 426.19 C 606.72 419.23 613.29 411.07 617.74 401.77 C 620.25 396.14 622.65 390.46 624.34 384.52 C 630.69 362.91 633.47 340.42 634.63 317.98 C 635.61 294.62 634.28 271.12 629.86 248.14 C 624.87 220.01 615.38 192.32 599.84 168.21 C 595.84 160.54 590.72 153.50 585.24 146.84 C 565.03 121.83 538.04 102.38 507.89 91.22 C 492.38 86.18 476.44 82.13 460.16 80.69 C 431.71 77.61 402.84 82.48 376.15 92.46 M 369.28 322.94 C 369.42 326.07 368.87 329.41 369.60 332.42 C 374.73 337.62 378.45 344.58 378.21 352.05 C 378.55 359.77 374.83 367.07 369.45 372.41 C 369.31 393.92 369.24 415.43 369.30 436.94 C 417.11 437.26 464.92 436.86 512.72 437.03 C 512.53 415.20 512.96 393.35 512.49 371.53 C 509.33 367.09 505.83 362.59 504.97 357.04 C 503.00 348.18 506.42 338.88 512.85 332.68 C 512.70 328.91 513.05 325.11 512.59 321.36 C 512.18 319.76 510.45 319.50 509.06 319.62 C 463.71 319.65 418.35 319.75 373.00 319.69 C 371.09 319.41 368.88 320.81 369.28 322.94 M 340.95 407.71 C 340.73 408.07 340.30 408.79 340.09 409.15 C 339.36 417.05 340.29 425.04 339.90 432.97 C 339.94 435.48 339.22 438.28 340.75 440.52 C 342.65 438.76 344.77 437.08 347.44 436.78 C 347.52 429.52 347.35 422.25 347.45 414.99 C 347.31 413.06 348.81 410.72 350.93 410.94 C 354.30 410.82 357.66 410.93 361.03 410.88 C 361.05 409.41 361.07 407.95 361.09 406.50 C 361.04 405.14 360.99 403.79 360.95 402.45 C 355.33 402.54 349.71 402.25 344.10 402.56 C 341.63 402.85 340.95 405.63 340.95 407.71 M 521.03 402.41 C 521.04 403.81 521.05 405.21 521.08 406.62 C 521.09 408.01 521.10 409.41 521.13 410.81 C 525.09 410.96 529.05 410.72 533.01 411.02 C 534.95 411.13 536.68 413.02 536.34 415.02 C 536.20 422.25 536.16 429.48 536.20 436.72 C 539.01 437.20 541.64 438.33 544.00 439.92 C 543.77 428.35 543.68 416.77 543.86 405.20 L 543.72 405.63 C 542.89 403.84 541.12 402.34 539.07 402.43 C 533.06 402.30 527.04 402.45 521.03 402.41 M 355.84 420.21 C 355.69 422.23 355.66 424.27 355.79 426.31 L 355.90 426.60 C 355.67 430.07 355.74 433.55 355.77 437.03 C 357.51 437.02 359.25 437.01 361.00 437.01 C 361.04 433.55 361.22 430.08 360.84 426.64 L 360.92 426.33 C 361.02 424.28 361.02 422.23 360.99 420.18 C 359.27 420.18 357.55 420.19 355.84 420.21 M 521.05 420.31 C 521.04 422.42 521.04 424.55 521.01 426.67 C 520.84 430.13 520.86 433.59 520.83 437.05 C 523.18 437.01 525.54 436.95 527.91 436.90 C 527.83 433.50 527.81 430.09 527.86 426.69 C 527.87 424.55 527.87 422.41 527.88 420.28 C 525.60 420.29 523.32 420.30 521.05 420.31 M 344.47 451.06 C 344.55 453.76 344.55 456.47 344.62 459.18 C 344.60 462.16 344.41 465.16 344.74 468.15 C 345.53 470.38 347.41 472.23 349.66 473.00 C 350.92 473.94 352.48 473.94 353.99 473.94 C 364.66 473.87 375.33 473.98 386.01 474.06 C 431.65 473.69 477.30 474.32 522.94 473.88 C 526.42 473.68 530.17 474.60 533.44 473.04 C 540.03 471.95 539.43 463.88 539.02 458.86 C 539.00 456.22 538.99 453.58 539.14 450.94 C 539.44 447.51 536.63 443.91 533.08 443.95 C 472.37 443.83 411.66 443.99 350.95 443.94 C 347.13 443.81 344.30 447.40 344.47 451.06 Z"/>
</g>
<g id="#fffee9ff">
<path fill="#fffee9" opacity="1.00" d=" M 266.45 54.46 C 280.02 47.52 296.03 44.64 310.96 48.41 C 331.47 53.03 349.33 69.75 353.14 90.75 C 348.78 79.22 339.71 69.89 329.01 64.00 C 315.39 56.62 299.05 53.68 283.90 57.50 C 268.58 60.84 254.32 68.88 243.82 80.54 C 239.42 85.32 236.26 91.01 233.88 97.02 C 238.09 79.03 250.47 63.51 266.45 54.46 Z"/>
<path fill="#fffee9" opacity="1.00" d=" M 556.29 58.25 C 565.15 51.63 576.06 48.02 586.99 46.87 C 606.42 45.29 626.25 53.41 639.21 67.93 C 646.07 75.78 651.31 85.10 654.22 95.13 C 651.81 90.69 649.44 86.17 646.04 82.40 C 636.27 69.72 621.56 61.80 606.33 57.68 C 599.02 56.20 591.45 55.20 584.04 56.45 C 567.42 59.09 551.36 67.49 541.24 81.15 C 539.22 84.64 536.43 88.21 536.47 92.41 C 536.13 92.20 535.46 91.79 535.12 91.58 C 536.33 77.87 545.70 66.32 556.29 58.25 Z"/>
</g>
<g id="#01f2c9ff">
<path fill="#01f2c9" opacity="1.00" d=" M 283.90 57.50 C 299.05 53.68 315.39 56.62 329.01 64.00 C 339.71 69.89 348.78 79.22 353.14 90.75 L 353.33 91.14 C 342.41 96.68 332.38 103.73 322.64 111.10 C 317.50 105.13 309.98 101.38 302.06 101.27 C 285.06 99.57 269.57 115.39 269.91 132.13 C 260.92 128.70 253.05 122.36 247.46 114.57 C 243.19 107.89 240.82 99.90 241.09 91.94 C 241.17 87.99 242.74 84.29 243.82 80.54 C 254.32 68.88 268.58 60.84 283.90 57.50 Z"/>
</g>
<g id="#01f3c9ff">
<path fill="#01f3c9" opacity="1.00" d=" M 584.04 56.45 C 591.45 55.20 599.02 56.20 606.33 57.68 C 621.56 61.80 636.27 69.72 646.04 82.40 C 646.44 87.93 648.04 93.46 646.95 99.01 C 645.37 111.67 636.51 122.43 625.76 128.75 C 622.72 130.65 618.11 131.75 618.15 136.14 C 618.22 135.52 618.38 134.28 618.45 133.67 C 618.98 126.97 617.23 120.15 613.49 114.57 C 607.93 105.74 597.22 100.83 586.94 101.23 C 578.68 101.39 570.96 105.71 565.43 111.66 C 556.23 104.59 546.66 97.98 536.47 92.41 C 536.43 88.21 539.22 84.64 541.24 81.15 C 551.36 67.49 567.42 59.09 584.04 56.45 Z"/>
</g>
<g id="#fffdeaff">
<path fill="#fffdea" opacity="1.00" d=" M 376.15 92.46 C 402.84 82.48 431.71 77.61 460.16 80.69 C 476.44 82.13 492.38 86.18 507.89 91.22 C 538.04 102.38 565.03 121.83 585.24 146.84 C 590.72 153.50 595.84 160.54 599.84 168.21 C 581.06 144.39 559.00 122.32 531.98 108.01 C 513.72 98.11 493.43 92.49 472.92 89.70 C 438.12 84.57 402.00 88.89 369.45 102.24 C 374.78 102.50 380.49 103.68 384.37 107.65 C 389.42 112.30 390.50 120.34 387.31 126.34 C 382.85 135.67 370.92 139.66 361.40 136.41 C 355.21 134.03 350.11 127.83 350.60 120.96 C 350.75 116.74 353.02 113.06 355.02 109.49 C 340.03 117.23 326.22 127.36 314.32 139.32 C 304.01 148.95 295.18 159.98 285.20 169.92 C 306.58 135.62 338.15 107.02 376.15 92.46 Z"/>
<path fill="#fffdea" opacity="1.00" d=" M 348.49 195.61 C 356.62 192.31 367.59 197.09 369.26 206.08 C 371.26 214.03 365.16 222.53 357.09 223.48 C 348.88 225.19 340.30 218.45 340.04 210.07 C 339.47 204.11 342.88 197.90 348.49 195.61 Z"/>
<path fill="#fffdea" opacity="1.00" d=" M 524.44 195.50 C 533.19 191.72 544.83 198.37 545.36 208.05 C 546.01 216.02 539.06 223.53 531.12 223.70 C 524.45 224.21 517.78 219.51 516.08 213.05 C 514.05 206.19 517.69 198.13 524.44 195.50 Z"/>
</g>
<g id="#0ec1eaff">
<path fill="#0ec1ea" opacity="1.00" d=" M 233.88 97.02 C 236.26 91.01 239.42 85.32 243.82 80.54 C 242.74 84.29 241.17 87.99 241.09 91.94 C 240.82 99.90 243.19 107.89 247.46 114.57 C 253.05 122.36 260.92 128.70 269.91 132.13 C 270.14 134.75 270.42 137.37 270.89 139.96 C 272.76 146.21 275.78 152.49 280.86 156.75 C 278.54 160.26 276.27 163.80 273.87 167.25 C 267.44 165.06 260.95 162.71 255.43 158.65 C 245.09 151.02 237.08 140.02 233.72 127.56 C 231.49 117.57 231.03 106.91 233.88 97.02 Z"/>
</g>
<g id="#0dc3edff">
<path fill="#0dc3ed" opacity="1.00" d=" M 646.04 82.40 C 649.44 86.17 651.81 90.69 654.22 95.13 C 657.10 104.34 657.17 114.35 655.57 123.82 C 651.47 144.96 634.17 163.23 612.79 167.17 C 610.24 164.51 608.80 160.77 606.51 157.81 C 613.32 152.63 616.78 144.36 618.15 136.14 C 618.11 131.75 622.72 130.65 625.76 128.75 C 636.51 122.43 645.37 111.67 646.95 99.01 C 648.04 93.46 646.44 87.93 646.04 82.40 Z"/>
</g>
<g id="#01f4c9ff">
<path fill="#01f4c9" opacity="1.00" d=" M 369.45 102.24 C 402.00 88.89 438.12 84.57 472.92 89.70 C 493.43 92.49 513.72 98.11 531.98 108.01 C 559.00 122.32 581.06 144.39 599.84 168.21 C 615.38 192.32 624.87 220.01 629.86 248.14 L 628.70 247.69 C 608.18 238.15 586.20 232.11 563.94 228.25 C 564.93 214.64 558.09 200.82 546.79 193.22 C 541.56 189.62 535.44 186.90 528.98 187.06 C 516.75 186.65 504.98 193.44 498.29 203.53 C 491.51 203.44 484.84 202.02 478.09 201.56 C 455.93 199.92 433.67 200.01 411.48 201.00 C 401.91 201.33 392.47 203.09 382.93 203.68 L 383.53 204.71 C 378.58 197.15 371.10 191.07 362.48 188.25 C 353.61 185.80 343.72 187.09 335.79 191.78 C 323.46 199.28 315.36 213.75 316.83 228.30 C 295.98 232.76 275.21 238.46 255.95 247.78 C 255.71 249.39 255.45 251.00 255.22 252.62 C 255.38 248.70 256.46 244.91 257.16 241.07 C 260.68 224.71 265.19 208.44 272.26 193.22 C 276.20 185.27 280.17 177.26 285.20 169.92 C 295.18 159.98 304.01 148.95 314.32 139.32 C 326.22 127.36 340.03 117.23 355.02 109.49 C 353.02 113.06 350.75 116.74 350.60 120.96 C 350.11 127.83 355.21 134.03 361.40 136.41 C 370.92 139.66 382.85 135.67 387.31 126.34 C 390.50 120.34 389.42 112.30 384.37 107.65 C 380.49 103.68 374.78 102.50 369.45 102.24 M 340.16 136.12 C 338.25 137.61 338.33 140.17 338.41 142.35 C 342.25 145.59 348.91 140.70 346.84 136.14 C 345.53 133.49 341.96 134.62 340.16 136.12 M 324.38 137.54 C 319.45 139.15 315.56 145.60 318.68 150.36 C 323.60 155.13 331.39 148.75 331.58 143.04 C 332.16 139.21 327.90 136.11 324.38 137.54 M 350.14 167.13 C 345.00 169.26 339.36 170.56 334.83 173.90 C 330.78 176.98 332.59 184.45 337.97 184.51 C 342.64 184.05 346.91 181.82 351.39 180.55 C 354.57 179.67 358.12 177.65 358.38 173.98 C 359.20 169.61 354.19 165.75 350.14 167.13 M 526.26 167.32 C 522.66 168.74 520.66 173.72 523.13 176.95 C 525.01 179.84 528.70 180.18 531.64 181.41 C 535.73 182.68 539.67 185.25 544.11 184.74 C 547.52 184.44 549.94 180.53 548.53 177.35 C 546.88 172.94 541.97 171.50 538.03 169.87 C 534.26 168.64 530.32 165.70 526.26 167.32 Z"/>
</g>
<g id="#fe95b3ff">
<path fill="#fe95b3" opacity="1.00" d=" M 269.91 132.13 C 269.57 115.39 285.06 99.57 302.06 101.27 C 309.98 101.38 317.50 105.13 322.64 111.10 C 312.34 119.56 302.68 128.85 294.25 139.20 C 286.07 138.89 278.22 136.54 270.55 133.87 C 270.59 135.90 270.65 137.93 270.89 139.96 C 270.42 137.37 270.14 134.75 269.91 132.13 Z"/>
</g>
<g id="#fe95b2ff">
<path fill="#fe95b2" opacity="1.00" d=" M 565.43 111.66 C 570.96 105.71 578.68 101.39 586.94 101.23 C 597.22 100.83 607.93 105.74 613.49 114.57 C 617.23 120.15 618.98 126.97 618.45 133.67 C 610.19 137.07 601.30 139.30 592.31 138.37 C 584.46 128.45 575.32 119.54 565.43 111.66 Z"/>
</g>
<g id="#c868beff">
<path fill="#c868be" opacity="1.00" d=" M 270.55 133.87 C 278.22 136.54 286.07 138.89 294.25 139.20 C 289.42 144.77 284.96 150.63 280.86 156.75 C 275.78 152.49 272.76 146.21 270.89 139.96 C 270.65 137.93 270.59 135.90 270.55 133.87 Z"/>
</g>
<g id="#c363c2ff">
<path fill="#c363c2" opacity="1.00" d=" M 592.31 138.37 C 601.30 139.30 610.19 137.07 618.45 133.67 C 618.38 134.28 618.22 135.52 618.15 136.14 C 616.78 144.36 613.32 152.63 606.51 157.81 C 602.56 150.78 597.33 144.63 592.31 138.37 Z"/>
</g>
<g id="#fefee9ff">
<path fill="#fefee9" opacity="1.00" d=" M 340.16 136.12 C 341.96 134.62 345.53 133.49 346.84 136.14 C 348.91 140.70 342.25 145.59 338.41 142.35 C 338.33 140.17 338.25 137.61 340.16 136.12 Z"/>
</g>
<g id="#fffeebff">
<path fill="#fffeeb" opacity="1.00" d=" M 324.38 137.54 C 327.90 136.11 332.16 139.21 331.58 143.04 C 331.39 148.75 323.60 155.13 318.68 150.36 C 315.56 145.60 319.45 139.15 324.38 137.54 Z"/>
</g>
<g id="#1b0433ff">
<path fill="#1b0433" opacity="1.00" d=" M 350.14 167.13 C 354.19 165.75 359.20 169.61 358.38 173.98 C 358.12 177.65 354.57 179.67 351.39 180.55 C 346.91 181.82 342.64 184.05 337.97 184.51 C 332.59 184.45 330.78 176.98 334.83 173.90 C 339.36 170.56 345.00 169.26 350.14 167.13 Z"/>
</g>
<g id="#1a0631ff">
<path fill="#1a0631" opacity="1.00" d=" M 526.26 167.32 C 530.32 165.70 534.26 168.64 538.03 169.87 C 541.97 171.50 546.88 172.94 548.53 177.35 C 549.94 180.53 547.52 184.44 544.11 184.74 C 539.67 185.25 535.73 182.68 531.64 181.41 C 528.70 180.18 525.01 179.84 523.13 176.95 C 520.66 173.72 522.66 168.74 526.26 167.32 Z"/>
</g>
<g id="#1b0430ff">
<path fill="#1b0430" opacity="1.00" d=" M 498.29 203.53 C 504.98 193.44 516.75 186.65 528.98 187.06 C 535.44 186.90 541.56 189.62 546.79 193.22 C 558.09 200.82 564.93 214.64 563.94 228.25 C 562.98 237.69 558.04 246.76 550.28 252.31 C 536.49 263.18 514.78 262.15 502.40 249.58 C 490.43 237.72 488.29 217.26 498.29 203.53 M 524.44 195.50 C 517.69 198.13 514.05 206.19 516.08 213.05 C 517.78 219.51 524.45 224.21 531.12 223.70 C 539.06 223.53 546.01 216.02 545.36 208.05 C 544.83 198.37 533.19 191.72 524.44 195.50 M 508.32 229.40 C 502.87 231.52 501.87 239.91 506.85 243.11 C 511.58 246.90 519.20 242.93 519.22 236.99 C 519.84 231.39 513.32 227.02 508.32 229.40 M 544.05 229.01 C 538.88 230.29 536.32 237.15 539.63 241.41 C 542.89 246.76 551.99 244.97 553.30 238.97 C 555.19 233.58 549.66 227.23 544.05 229.01 Z"/>
</g>
<g id="#1b0530ff">
<path fill="#1b0530" opacity="1.00" d=" M 335.79 191.78 C 343.72 187.09 353.61 185.80 362.48 188.25 C 371.10 191.07 378.58 197.15 383.53 204.71 C 389.35 214.48 390.64 226.96 386.37 237.57 C 380.76 251.85 365.21 261.42 349.92 259.77 C 340.71 258.62 331.54 254.67 325.33 247.62 C 320.48 242.34 317.39 235.46 316.83 228.30 C 315.36 213.75 323.46 199.28 335.79 191.78 M 348.49 195.61 C 342.88 197.90 339.47 204.11 340.04 210.07 C 340.30 218.45 348.88 225.19 357.09 223.48 C 365.16 222.53 371.26 214.03 369.26 206.08 C 367.59 197.09 356.62 192.31 348.49 195.61 M 331.33 229.38 C 325.92 231.54 324.89 240.07 329.90 243.24 C 334.36 246.38 341.03 243.37 341.90 238.07 C 343.38 232.30 336.72 226.83 331.33 229.38 M 366.23 229.27 C 360.85 230.98 359.40 238.69 363.57 242.40 C 367.33 246.49 374.74 244.51 376.24 239.26 C 378.86 233.41 372.07 226.74 366.23 229.27 Z"/>
</g>
<g id="#1b0330ff">
<path fill="#1b0330" opacity="1.00" d=" M 431.99 227.00 C 433.17 223.36 437.54 222.02 441.01 221.98 C 444.71 221.86 449.35 223.83 449.59 228.05 C 449.51 231.02 446.66 232.58 444.14 233.24 C 445.09 240.24 453.43 245.87 459.94 241.99 C 465.07 239.07 460.00 231.81 464.51 228.56 C 467.27 226.83 471.21 228.70 471.80 231.83 C 471.97 234.20 471.89 236.59 471.83 238.97 C 471.88 244.97 466.83 250.17 461.13 251.37 C 461.18 258.73 460.38 266.64 455.80 272.72 C 452.42 277.46 446.90 280.83 440.97 280.76 C 434.35 280.78 428.31 276.50 425.14 270.86 C 421.70 265.14 421.21 258.26 421.31 251.75 C 417.24 250.09 412.87 248.08 410.91 243.86 C 409.09 240.37 409.85 236.24 409.74 232.46 C 409.83 228.39 415.79 226.42 418.30 229.66 C 420.54 233.10 417.88 238.01 420.76 241.18 C 424.57 244.48 430.76 243.56 434.07 239.99 C 435.79 238.19 436.66 235.81 437.49 233.52 C 434.59 232.74 431.28 230.42 431.99 227.00 M 440.39 245.81 C 438.02 249.03 434.47 250.93 430.74 252.15 C 430.80 254.44 430.89 256.72 430.99 259.01 C 431.62 263.92 434.23 269.00 439.04 270.92 C 443.08 272.24 446.94 269.30 448.94 266.01 C 451.59 261.88 451.27 256.77 451.55 252.08 C 450.65 251.81 449.75 251.54 448.86 251.27 C 445.55 250.28 442.99 247.97 440.39 245.81 Z"/>
</g>
<g id="#fffee7ff">
<path fill="#fffee7" opacity="1.00" d=" M 331.33 229.38 C 336.72 226.83 343.38 232.30 341.90 238.07 C 341.03 243.37 334.36 246.38 329.90 243.24 C 324.89 240.07 325.92 231.54 331.33 229.38 Z"/>
</g>
<g id="#fffdebff">
<path fill="#fffdeb" opacity="1.00" d=" M 366.23 229.27 C 372.07 226.74 378.86 233.41 376.24 239.26 C 374.74 244.51 367.33 246.49 363.57 242.40 C 359.40 238.69 360.85 230.98 366.23 229.27 Z"/>
</g>
<g id="#fffde8ff">
<path fill="#fffde8" opacity="1.00" d=" M 508.32 229.40 C 513.32 227.02 519.84 231.39 519.22 236.99 C 519.20 242.93 511.58 246.90 506.85 243.11 C 501.87 239.91 502.87 231.52 508.32 229.40 Z"/>
</g>
<g id="#fffee8ff">
<path fill="#fffee8" opacity="1.00" d=" M 544.05 229.01 C 549.66 227.23 555.19 233.58 553.30 238.97 C 551.99 244.97 542.89 246.76 539.63 241.41 C 536.32 237.15 538.88 230.29 544.05 229.01 Z"/>
</g>
<g id="#c358b9ff">
<path fill="#c358b9" opacity="1.00" d=" M 440.39 245.81 C 442.99 247.97 445.55 250.28 448.86 251.27 C 452.55 252.23 450.90 256.28 450.61 258.95 C 447.40 258.03 444.29 256.68 440.99 256.08 C 437.54 256.59 434.32 258.03 430.99 259.01 C 430.89 256.72 430.80 254.44 430.74 252.15 C 434.47 250.93 438.02 249.03 440.39 245.81 Z"/>
</g>
<g id="#81edfaff">
<path fill="#81edfa" opacity="1.00" d=" M 628.70 247.69 L 629.86 248.14 C 634.28 271.12 635.61 294.62 634.63 317.98 C 633.47 340.42 630.69 362.91 624.34 384.52 C 622.65 390.46 620.25 396.14 617.74 401.77 C 613.29 411.07 606.72 419.23 599.16 426.19 C 596.55 428.55 593.56 430.45 591.07 432.94 C 592.72 442.01 591.00 451.92 585.23 459.27 C 581.24 464.62 574.06 467.61 567.52 465.63 C 561.00 463.88 556.78 457.76 555.32 451.45 C 557.89 450.56 560.21 449.06 561.80 446.83 C 559.38 443.32 555.48 447.71 552.33 447.60 C 552.37 436.25 552.29 424.90 552.35 413.56 C 572.23 405.98 589.87 392.50 601.81 374.83 C 607.19 367.78 611.40 359.93 614.61 351.67 C 623.25 330.49 627.87 307.79 629.17 284.99 C 630.09 272.56 629.19 260.11 628.70 247.69 Z"/>
</g>
<g id="#fea3b4ff">
<path fill="#fea3b4" opacity="1.00" d=" M 448.86 251.27 C 449.75 251.54 450.65 251.81 451.55 252.08 C 451.27 256.77 451.59 261.88 448.94 266.01 C 446.94 269.30 443.08 272.24 439.04 270.92 C 434.23 269.00 431.62 263.92 430.99 259.01 C 434.32 258.03 437.54 256.59 440.99 256.08 C 444.29 256.68 447.40 258.03 450.61 258.95 C 450.90 256.28 452.55 252.23 448.86 251.27 Z"/>
</g>
<g id="#fe93b1ff">
<path fill="#fe93b1" opacity="1.00" d=" M 299.49 252.68 C 308.46 250.53 318.44 251.59 326.24 256.73 C 331.83 260.74 336.36 266.98 336.56 274.06 C 337.07 281.22 332.58 287.98 326.60 291.57 C 318.78 295.75 309.50 296.80 300.82 295.29 C 294.00 294.00 287.23 290.65 283.25 284.78 C 279.47 279.46 279.56 272.12 282.41 266.41 C 285.83 259.71 292.14 254.46 299.49 252.68 Z"/>
</g>
<g id="#fe94b0ff">
<path fill="#fe94b0" opacity="1.00" d=" M 568.30 252.38 C 575.56 251.14 583.47 251.37 590.11 254.90 C 595.73 257.63 600.13 262.63 602.56 268.35 C 605.57 275.51 603.34 284.47 597.18 289.25 C 589.42 295.69 578.63 296.82 569.01 295.03 C 561.68 293.76 554.47 289.97 550.37 283.60 C 546.46 277.49 547.32 269.17 551.44 263.39 C 555.31 257.65 561.55 253.75 568.30 252.38 Z"/>
</g>
<g id="#81ebfaff">
<path fill="#81ebfa" opacity="1.00" d=" M 250.58 311.97 C 250.43 292.14 251.24 272.12 255.22 252.67 C 255.68 260.78 255.11 268.91 255.50 277.03 C 255.76 303.15 260.63 329.33 270.70 353.48 C 276.94 367.52 285.44 380.73 296.53 391.44 C 306.62 401.50 319.56 407.87 332.52 413.36 C 332.58 424.80 332.49 436.24 332.68 447.69 C 330.21 447.28 327.85 446.52 325.60 445.47 C 324.15 444.72 322.19 446.18 323.09 447.81 C 324.64 449.81 326.91 451.04 329.05 452.31 C 328.24 455.64 326.91 458.96 324.33 461.34 C 318.68 467.47 308.19 467.82 302.01 462.32 C 293.64 455.15 291.18 443.00 293.37 432.56 C 287.65 427.66 281.71 422.95 277.03 416.99 C 263.92 400.89 258.19 380.22 255.03 360.05 C 252.18 344.19 250.63 328.09 250.58 311.97 Z"/>
</g>
<g id="#01e6c6ff">
<path fill="#01e6c6" opacity="1.00" d=" M 388.56 340.35 C 389.07 337.27 387.07 332.90 389.98 330.81 C 424.41 330.53 458.85 330.83 493.28 330.74 C 494.39 333.91 495.01 338.31 492.99 341.12 C 459.36 341.34 425.71 341.23 392.06 341.26 C 390.79 341.33 389.62 341.03 388.56 340.35 Z"/>
</g>
<g id="#02deb2ff">
<path fill="#02deb2" opacity="1.00" d=" M 388.33 348.05 C 388.76 346.46 390.56 346.34 391.93 346.38 C 423.63 346.31 455.34 346.40 487.04 346.34 C 489.08 346.37 491.17 346.16 493.18 346.60 C 495.13 347.76 494.34 349.92 493.11 351.28 C 459.06 351.07 424.99 351.52 390.94 351.29 C 389.18 351.56 387.55 349.75 388.33 348.05 Z"/>
</g>
<g id="#77ecfbff">
<path fill="#77ecfb" opacity="1.00" d=" M 514.60 350.65 C 521.47 358.83 532.77 361.28 542.99 361.37 C 554.51 361.52 567.10 361.08 576.84 354.13 C 576.11 361.10 574.05 368.37 569.09 373.55 C 568.62 373.25 567.67 372.65 567.19 372.35 C 567.22 370.12 565.97 368.10 564.04 367.04 C 561.10 366.24 558.76 368.71 556.06 369.35 C 547.93 371.87 539.08 372.18 530.80 370.26 C 522.04 368.09 513.74 360.28 514.60 350.65 Z"/>
</g>
<g id="#75ecfcff">
<path fill="#75ecfc" opacity="1.00" d=" M 327.00 360.89 C 341.16 362.05 357.36 361.70 368.46 351.53 C 368.78 359.88 362.17 366.98 354.53 369.35 C 344.18 372.44 332.65 371.69 322.85 367.09 C 318.49 364.56 314.32 371.17 317.69 374.55 C 317.14 374.74 316.03 375.11 315.47 375.30 C 310.37 369.71 307.24 362.43 306.75 354.87 C 313.12 357.96 319.83 360.59 327.00 360.89 Z"/>
</g>
<g id="#02d3bfff">
<path fill="#02d3bf" opacity="1.00" d=" M 388.92 357.94 C 390.16 357.29 391.61 357.48 392.97 357.43 C 425.94 357.46 458.92 357.39 491.90 357.48 C 494.07 357.10 494.67 359.59 494.41 361.27 C 492.98 361.80 491.51 362.25 489.98 362.14 C 456.97 362.06 423.96 362.08 390.95 362.12 C 388.55 362.50 387.42 359.57 388.92 357.94 Z"/>
</g>
<g id="#01e7c8ff">
<path fill="#01e7c8" opacity="1.00" d=" M 388.74 367.72 C 408.81 367.03 428.93 367.69 449.02 367.51 C 463.95 367.70 478.92 367.04 493.82 367.85 C 493.86 371.04 494.87 374.53 493.27 377.50 C 458.43 377.24 423.57 377.60 388.73 377.33 C 388.27 374.14 388.46 370.92 388.74 367.72 Z"/>
</g>
<g id="#29c5f3ff">
<path fill="#29c5f3" opacity="1.00" d=" M 567.19 372.35 C 567.67 372.65 568.62 373.25 569.09 373.55 C 563.92 379.52 557.58 384.65 549.90 386.97 C 540.63 390.49 530.61 389.56 520.93 390.20 C 520.75 385.97 520.81 381.75 520.80 377.52 C 531.96 382.01 544.77 382.98 556.23 379.06 C 560.21 377.47 564.81 376.23 567.19 372.35 Z"/>
</g>
<g id="#29c4f5ff">
<path fill="#29c4f5" opacity="1.00" d=" M 317.69 374.55 C 330.54 382.55 347.02 382.77 361.05 377.87 C 361.00 382.06 361.05 386.26 361.03 390.47 C 353.47 390.42 345.89 389.89 338.49 388.35 C 329.71 386.50 321.52 381.94 315.47 375.30 C 316.03 375.11 317.14 374.74 317.69 374.55 Z"/>
</g>
<g id="#02e1b9ff">
<path fill="#02e1b9" opacity="1.00" d=" M 390.38 382.56 C 424.19 382.26 458.02 382.38 491.84 382.51 C 495.03 382.18 495.23 387.26 492.10 387.24 C 458.38 387.44 424.65 387.32 390.92 387.25 C 387.86 387.75 387.26 382.64 390.38 382.56 Z"/>
</g>
<g id="#01d3c2ff">
<path fill="#01d3c2" opacity="1.00" d=" M 388.32 405.39 C 388.15 403.50 388.36 400.95 390.83 400.91 C 424.58 400.81 458.33 400.73 492.08 400.86 C 495.19 400.78 495.35 406.01 492.15 406.10 C 460.11 406.33 428.06 406.06 396.02 406.23 C 393.44 406.16 390.71 406.61 388.32 405.39 Z"/>
</g>
<g id="#ffffebff">
<path fill="#ffffeb" opacity="1.00" d=" M 340.95 407.71 C 340.95 405.63 341.63 402.85 344.10 402.56 C 349.71 402.25 355.33 402.54 360.95 402.45 C 360.99 403.79 361.04 405.14 361.09 406.50 C 355.00 406.13 348.91 406.22 342.82 406.29 C 342.35 406.65 341.41 407.36 340.95 407.71 Z"/>
<path fill="#ffffeb" opacity="1.00" d=" M 344.47 451.06 C 344.30 447.40 347.13 443.81 350.95 443.94 C 411.66 443.99 472.37 443.83 533.08 443.95 C 536.63 443.91 539.44 447.51 539.14 450.94 C 537.27 449.84 535.23 448.99 533.02 449.19 C 472.33 449.26 411.64 449.50 350.95 449.12 C 348.58 448.87 346.46 449.94 344.47 451.06 Z"/>
</g>
<g id="#fdfff1ff">
<path fill="#fdfff1" opacity="1.00" d=" M 521.03 402.41 C 527.04 402.45 533.06 402.30 539.07 402.43 C 541.12 402.34 542.89 403.84 543.72 405.63 L 543.46 406.46 C 536.00 406.39 528.54 406.33 521.08 406.62 C 521.05 405.21 521.04 403.81 521.03 402.41 Z"/>
</g>
<g id="#87f9d0ff">
<path fill="#87f9d0" opacity="1.00" d=" M 543.72 405.63 L 543.86 405.20 C 543.68 416.77 543.77 428.35 544.00 439.92 C 541.64 438.33 539.01 437.20 536.20 436.72 C 536.16 429.48 536.20 422.25 536.34 415.02 C 536.68 413.02 534.95 411.13 533.01 411.02 C 529.05 410.72 525.09 410.96 521.13 410.81 C 521.10 409.41 521.09 408.01 521.08 406.62 C 528.54 406.33 536.00 406.39 543.46 406.46 L 543.72 405.63 Z"/>
</g>
<g id="#8dfadbff">
<path fill="#8dfadb" opacity="1.00" d=" M 340.95 407.71 C 341.41 407.36 342.35 406.65 342.82 406.29 C 348.91 406.22 355.00 406.13 361.09 406.50 C 361.07 407.95 361.05 409.41 361.03 410.88 C 357.66 410.93 354.30 410.82 350.93 410.94 C 348.81 410.72 347.31 413.06 347.45 414.99 C 347.35 422.25 347.52 429.52 347.44 436.78 C 344.77 437.08 342.65 438.76 340.75 440.52 C 341.25 429.59 341.02 418.64 340.95 407.71 Z"/>
</g>
<g id="#0b1d26ff">
<path fill="#0b1d26" opacity="1.00" d=" M 340.09 409.15 C 340.30 408.79 340.73 408.07 340.95 407.71 C 341.02 418.64 341.25 429.59 340.75 440.52 C 339.22 438.28 339.94 435.48 339.90 432.97 C 340.29 425.04 339.36 417.05 340.09 409.15 Z"/>
</g>
<g id="#02cfbfff">
<path fill="#02cfbf" opacity="1.00" d=" M 388.62 416.32 C 387.84 414.47 388.44 411.71 390.89 411.79 C 424.27 411.73 457.65 411.71 491.03 411.89 C 492.81 411.64 495.34 412.85 494.47 415.05 C 494.35 416.78 492.21 416.55 491.03 416.66 C 462.01 416.59 432.99 416.56 403.97 416.60 C 398.85 416.48 393.72 416.82 388.62 416.32 Z"/>
</g>
<g id="#fffeecff">
<path fill="#fffeec" opacity="1.00" d=" M 355.84 420.21 C 357.55 420.19 359.27 420.18 360.99 420.18 C 361.02 422.23 361.02 424.28 360.92 426.33 C 359.21 426.33 357.50 426.32 355.79 426.31 C 355.66 424.27 355.69 422.23 355.84 420.21 Z"/>
</g>
<g id="#fcfeeeff">
<path fill="#fcfeee" opacity="1.00" d=" M 521.05 420.31 C 523.32 420.30 525.60 420.29 527.88 420.28 C 527.87 422.41 527.87 424.55 527.86 426.69 C 525.57 426.65 523.29 426.64 521.01 426.67 C 521.04 424.55 521.04 422.42 521.05 420.31 Z"/>
</g>
<g id="#01eac8ff">
<path fill="#01eac8" opacity="1.00" d=" M 388.66 423.69 C 418.43 423.01 448.24 423.53 478.03 423.34 C 483.27 423.52 488.56 423.00 493.75 423.86 C 493.89 426.94 494.33 430.05 493.82 433.14 C 458.76 433.47 423.69 433.27 388.63 433.14 C 388.42 429.99 388.43 426.83 388.66 423.69 Z"/>
</g>
<g id="#18d3ecff">
<path fill="#18d3ec" opacity="1.00" d=" M 355.79 426.31 C 357.50 426.32 359.21 426.33 360.92 426.33 L 360.84 426.64 C 359.50 429.69 360.61 433.48 359.00 436.29 C 358.56 436.18 357.69 435.96 357.26 435.84 C 356.79 432.76 357.26 429.50 355.90 426.60 L 355.79 426.31 Z"/>
</g>
<g id="#34d1eaff">
<path fill="#34d1ea" opacity="1.00" d=" M 355.90 426.60 C 357.26 429.50 356.79 432.76 357.26 435.84 C 357.69 435.96 358.56 436.18 359.00 436.29 C 360.61 433.48 359.50 429.69 360.84 426.64 C 361.22 430.08 361.04 433.55 361.00 437.01 C 359.25 437.01 357.51 437.02 355.77 437.03 C 355.74 433.55 355.67 430.07 355.90 426.60 Z"/>
</g>
<g id="#24c2f7ff">
<path fill="#24c2f7" opacity="1.00" d=" M 520.83 437.05 C 520.86 433.59 520.84 430.13 521.01 426.67 C 523.29 426.64 525.57 426.65 527.86 426.69 C 527.81 430.09 527.83 433.50 527.91 436.90 C 525.54 436.95 523.18 437.01 520.83 437.05 Z"/>
</g>
<g id="#95fcd7ff">
<path fill="#95fcd7" opacity="1.00" d=" M 344.47 451.06 C 346.46 449.94 348.58 448.87 350.95 449.12 C 411.64 449.50 472.33 449.26 533.02 449.19 C 535.23 448.99 537.27 449.84 539.14 450.94 C 538.99 453.58 539.00 456.22 539.02 458.86 C 536.86 461.02 534.37 463.25 531.07 462.99 C 502.38 462.73 473.66 463.45 444.96 462.93 C 433.32 462.87 421.67 462.86 410.03 462.86 C 395.38 462.78 380.73 463.49 366.08 462.89 C 361.04 462.64 356.00 463.34 350.98 462.95 C 348.39 462.70 346.58 460.62 344.62 459.18 C 344.55 456.47 344.55 453.76 344.47 451.06 Z"/>
</g>
<g id="#03d1e0ff">
<path fill="#03d1e0" opacity="1.00" d=" M 582.55 473.56 C 589.13 470.75 594.15 465.20 597.30 458.88 C 610.95 460.26 624.64 461.52 638.19 463.76 C 642.99 464.73 647.96 465.40 652.38 467.64 C 653.27 468.33 655.15 468.63 654.88 470.14 C 655.19 472.09 652.79 472.77 651.44 473.47 C 644.23 476.11 636.50 476.83 628.97 478.12 C 606.07 481.11 583.09 483.75 560.00 484.69 C 548.60 485.29 537.21 485.82 525.82 486.63 C 526.86 485.72 527.90 484.81 528.94 483.90 C 515.04 482.25 500.96 482.95 486.98 482.71 C 441.57 482.70 396.15 482.60 350.75 483.17 C 350.27 482.91 349.30 482.40 348.81 482.14 C 409.20 482.50 469.59 482.36 529.97 482.22 C 536.05 482.62 542.36 479.78 545.43 474.40 C 547.95 470.51 547.49 465.71 547.76 461.30 C 550.41 464.90 552.93 468.73 556.64 471.36 C 564.02 476.63 574.43 477.92 582.55 473.56 Z"/>
</g>
<g id="#04cfe1ff">
<path fill="#04cfe1" opacity="1.00" d=" M 258.93 462.18 C 267.62 460.61 276.47 460.27 285.17 458.75 C 285.68 458.97 286.71 459.41 287.22 459.63 C 291.08 467.12 297.57 473.55 305.96 475.57 C 307.31 476.52 308.60 477.57 309.88 478.63 C 306.32 480.74 301.85 479.96 298.46 482.48 C 283.23 482.02 267.97 479.70 252.85 477.50 C 246.67 476.28 240.15 475.57 234.61 472.37 C 232.86 471.71 232.67 469.23 234.41 468.48 C 241.95 464.43 250.62 463.57 258.93 462.18 Z"/>
</g>
<g id="#16bbf2ff">
<path fill="#16bbf2" opacity="1.00" d=" M 531.07 462.99 C 534.37 463.25 536.86 461.02 539.02 458.86 C 539.43 463.88 540.03 471.95 533.44 473.04 C 472.18 472.95 410.92 473.04 349.66 473.00 C 347.41 472.23 345.53 470.38 344.74 468.15 C 344.41 465.16 344.60 462.16 344.62 459.18 C 346.58 460.62 348.39 462.70 350.98 462.95 C 356.00 463.34 361.04 462.64 366.08 462.89 C 380.73 463.49 395.38 462.78 410.03 462.86 C 421.67 462.86 433.32 462.87 444.96 462.93 C 473.66 463.45 502.38 462.73 531.07 462.99 Z"/>
</g>
<g id="#02d7dcff">
<path fill="#02d7dc" opacity="1.00" d=" M 305.96 475.57 C 317.60 478.68 330.09 472.52 336.02 462.33 C 336.13 466.79 335.57 471.76 338.47 475.54 C 340.80 479.15 344.93 480.79 348.81 482.14 C 349.30 482.40 350.27 482.91 350.75 483.17 C 352.15 484.01 353.52 484.90 354.90 485.78 C 354.17 485.82 352.71 485.89 351.99 485.93 C 340.15 485.59 328.34 484.61 316.50 484.21 C 310.49 483.58 304.38 483.78 298.46 482.48 C 301.85 479.96 306.32 480.74 309.88 478.63 C 308.60 477.57 307.31 476.52 305.96 475.57 Z"/>
</g>
<g id="#032040ff">
<path fill="#032040" opacity="1.00" d=" M 349.66 473.00 C 410.92 473.04 472.18 472.95 533.44 473.04 C 530.17 474.60 526.42 473.68 522.94 473.88 C 477.30 474.32 431.65 473.69 386.01 474.06 C 375.33 473.98 364.66 473.87 353.99 473.94 C 352.48 473.94 350.92 473.94 349.66 473.00 Z"/>
</g>
<g id="#01f2ccff">
<path fill="#01f2cc" opacity="1.00" d=" M 350.75 483.17 C 396.15 482.60 441.57 482.70 486.98 482.71 C 500.96 482.95 515.04 482.25 528.94 483.90 C 527.90 484.81 526.86 485.72 525.82 486.63 C 509.58 487.81 493.27 487.53 477.01 488.19 C 453.01 488.41 429.02 488.32 405.02 488.19 C 387.35 487.39 369.62 487.53 351.99 485.93 C 352.71 485.89 354.17 485.82 354.90 485.78 C 353.52 484.90 352.15 484.01 350.75 483.17 Z"/>
</g>
</svg>